<mxfile host="Electron" modified="2024-01-16T11:30:34.740Z" agent="Mozilla/5.0 (Windows NT 10.0; Win64; x64) AppleWebKit/537.36 (KHTML, like Gecko) draw.io/21.1.2 Chrome/106.0.5249.199 Electron/21.4.3 Safari/537.36" etag="dDaz5m9M4VDYSnJ6Dpij" version="21.1.2" type="device">
  <diagram name="Page-1" id="Pg1XpjBiWAMOqzFmVkYa">
    <mxGraphModel dx="941" dy="644" grid="1" gridSize="10" guides="1" tooltips="1" connect="1" arrows="1" fold="1" page="1" pageScale="1" pageWidth="1169" pageHeight="827" background="none" math="0" shadow="0">
      <root>
        <mxCell id="0" />
        <mxCell id="1" parent="0" />
        <mxCell id="GWNYYibfc6u7Uzu7YpZk-8" value="I2C" style="edgeStyle=orthogonalEdgeStyle;rounded=0;orthogonalLoop=1;jettySize=auto;html=1;exitX=0;exitY=0.5;exitDx=0;exitDy=0;strokeWidth=3;fontSize=17;" parent="1" source="GWNYYibfc6u7Uzu7YpZk-1" target="GWNYYibfc6u7Uzu7YpZk-3" edge="1">
          <mxGeometry x="0.3846" relative="1" as="geometry">
            <mxPoint as="offset" />
          </mxGeometry>
        </mxCell>
        <mxCell id="GWNYYibfc6u7Uzu7YpZk-29" style="edgeStyle=orthogonalEdgeStyle;rounded=0;orthogonalLoop=1;jettySize=auto;html=1;exitX=0;exitY=0.5;exitDx=0;exitDy=0;entryX=1;entryY=0.5;entryDx=0;entryDy=0;strokeWidth=3;" parent="1" source="GWNYYibfc6u7Uzu7YpZk-1" target="GWNYYibfc6u7Uzu7YpZk-6" edge="1">
          <mxGeometry relative="1" as="geometry">
            <Array as="points">
              <mxPoint x="440" y="160" />
              <mxPoint x="440" y="280" />
            </Array>
          </mxGeometry>
        </mxCell>
        <mxCell id="GWNYYibfc6u7Uzu7YpZk-2" value="Ausgangsstufe 24V/ 12V" style="rounded=0;whiteSpace=wrap;html=1;fontSize=14;strokeWidth=2;" parent="1" vertex="1">
          <mxGeometry x="20" y="130" width="120" height="60" as="geometry" />
        </mxCell>
        <mxCell id="GWNYYibfc6u7Uzu7YpZk-10" value="analog" style="edgeStyle=orthogonalEdgeStyle;rounded=0;orthogonalLoop=1;jettySize=auto;html=1;exitX=0;exitY=0.5;exitDx=0;exitDy=0;strokeWidth=3;fontSize=17;" parent="1" source="GWNYYibfc6u7Uzu7YpZk-3" target="GWNYYibfc6u7Uzu7YpZk-2" edge="1">
          <mxGeometry relative="1" as="geometry" />
        </mxCell>
        <mxCell id="GWNYYibfc6u7Uzu7YpZk-3" value="I2C &lt;br style=&quot;font-size: 14px;&quot;&gt;Schieberegister" style="rounded=0;whiteSpace=wrap;html=1;fontSize=14;strokeWidth=2;" parent="1" vertex="1">
          <mxGeometry x="241.25" y="130" width="130" height="60" as="geometry" />
        </mxCell>
        <mxCell id="GWNYYibfc6u7Uzu7YpZk-4" value="15X" style="text;html=1;strokeColor=none;fillColor=none;align=center;verticalAlign=middle;whiteSpace=wrap;rounded=0;fontSize=14;" parent="1" vertex="1">
          <mxGeometry x="50" y="100" width="60" height="30" as="geometry" />
        </mxCell>
        <mxCell id="GWNYYibfc6u7Uzu7YpZk-5" value="Ausgangsstufe 24V/ 12V" style="rounded=0;whiteSpace=wrap;html=1;fontSize=14;strokeWidth=2;" parent="1" vertex="1">
          <mxGeometry x="20" y="250" width="120" height="60" as="geometry" />
        </mxCell>
        <mxCell id="GWNYYibfc6u7Uzu7YpZk-11" value="analog" style="edgeStyle=orthogonalEdgeStyle;rounded=0;orthogonalLoop=1;jettySize=auto;html=1;exitX=0;exitY=0.5;exitDx=0;exitDy=0;entryX=1;entryY=0.5;entryDx=0;entryDy=0;strokeWidth=3;fontSize=17;" parent="1" source="GWNYYibfc6u7Uzu7YpZk-6" target="GWNYYibfc6u7Uzu7YpZk-5" edge="1">
          <mxGeometry relative="1" as="geometry" />
        </mxCell>
        <mxCell id="GWNYYibfc6u7Uzu7YpZk-6" value="I2C &lt;br style=&quot;font-size: 14px;&quot;&gt;Schieberegister" style="rounded=0;whiteSpace=wrap;html=1;fontSize=14;strokeWidth=2;" parent="1" vertex="1">
          <mxGeometry x="241.25" y="250" width="130" height="60" as="geometry" />
        </mxCell>
        <mxCell id="GWNYYibfc6u7Uzu7YpZk-7" value="15X" style="text;html=1;strokeColor=none;fillColor=none;align=center;verticalAlign=middle;whiteSpace=wrap;rounded=0;fontSize=14;" parent="1" vertex="1">
          <mxGeometry x="50" y="220" width="60" height="30" as="geometry" />
        </mxCell>
        <mxCell id="GWNYYibfc6u7Uzu7YpZk-49" value="API" style="edgeStyle=orthogonalEdgeStyle;rounded=0;orthogonalLoop=1;jettySize=auto;html=1;exitX=0.75;exitY=0;exitDx=0;exitDy=0;entryX=0.25;entryY=1;entryDx=0;entryDy=0;curved=1;startArrow=classicThin;startFill=1;fillColor=#60a917;strokeColor=#2D7600;strokeWidth=7;fontSize=19;" parent="1" source="GWNYYibfc6u7Uzu7YpZk-31" target="GWNYYibfc6u7Uzu7YpZk-12" edge="1">
          <mxGeometry relative="1" as="geometry" />
        </mxCell>
        <mxCell id="GWNYYibfc6u7Uzu7YpZk-50" value="API" style="edgeStyle=orthogonalEdgeStyle;rounded=0;orthogonalLoop=1;jettySize=auto;html=1;exitX=0.5;exitY=0;exitDx=0;exitDy=0;entryX=0.75;entryY=1;entryDx=0;entryDy=0;curved=1;startArrow=classic;startFill=1;fillColor=#60a917;strokeColor=#2D7600;strokeWidth=7;fontSize=19;" parent="1" source="GWNYYibfc6u7Uzu7YpZk-44" target="GWNYYibfc6u7Uzu7YpZk-12" edge="1">
          <mxGeometry relative="1" as="geometry" />
        </mxCell>
        <mxCell id="GWNYYibfc6u7Uzu7YpZk-58" value="" style="group;strokeWidth=3;fontSize=18;" parent="1" vertex="1" connectable="0">
          <mxGeometry x="40" y="490" width="331.25" height="260" as="geometry" />
        </mxCell>
        <mxCell id="GWNYYibfc6u7Uzu7YpZk-31" value="" style="rounded=0;whiteSpace=wrap;html=1;fillColor=none;dashed=1;dashPattern=12 12;strokeWidth=4;" parent="GWNYYibfc6u7Uzu7YpZk-58" vertex="1">
          <mxGeometry x="1.25" y="30" width="330" height="230" as="geometry" />
        </mxCell>
        <mxCell id="GWNYYibfc6u7Uzu7YpZk-33" value="Python Pyside GUI" style="rounded=0;whiteSpace=wrap;html=1;fillColor=#008a00;fontColor=#ffffff;strokeColor=#005700;fontSize=18;" parent="GWNYYibfc6u7Uzu7YpZk-58" vertex="1">
          <mxGeometry x="37.5" y="174" width="258.75" height="60" as="geometry" />
        </mxCell>
        <mxCell id="GWNYYibfc6u7Uzu7YpZk-34" value="Raspberry Pie Mittelkonsole" style="text;html=1;strokeColor=none;fillColor=none;align=left;verticalAlign=middle;whiteSpace=wrap;rounded=0;fontStyle=1;fontSize=14;" parent="GWNYYibfc6u7Uzu7YpZk-58" vertex="1">
          <mxGeometry width="202.5" height="30" as="geometry" />
        </mxCell>
        <mxCell id="GWNYYibfc6u7Uzu7YpZk-52" style="edgeStyle=orthogonalEdgeStyle;rounded=0;orthogonalLoop=1;jettySize=auto;html=1;exitX=0.75;exitY=1;exitDx=0;exitDy=0;exitPerimeter=0;entryX=0.75;entryY=0;entryDx=0;entryDy=0;strokeWidth=4;" parent="GWNYYibfc6u7Uzu7YpZk-58" source="GWNYYibfc6u7Uzu7YpZk-39" target="GWNYYibfc6u7Uzu7YpZk-33" edge="1">
          <mxGeometry relative="1" as="geometry" />
        </mxCell>
        <mxCell id="GWNYYibfc6u7Uzu7YpZk-39" value="Netzwerkkarte/&lt;br style=&quot;font-size: 18px;&quot;&gt;Wifi Interface" style="rounded=0;whiteSpace=wrap;html=1;points=[[0,0,0,0,0],[0,0.25,0,0,0],[0,0.5,0,0,0],[0,0.75,0,0,0],[0,1,0,0,0],[0.13,0,0,0,0],[0.25,0,0,0,0],[0.25,1,0,0,0],[0.38,0,0,0,0],[0.5,0,0,0,0],[0.5,1,0,0,0],[0.62,0,0,0,0],[0.75,0,0,0,0],[0.75,1,0,0,0],[0.87,0,0,0,0],[1,0,0,0,0],[1,0.25,0,0,0],[1,0.5,0,0,0],[1,0.75,0,0,0],[1,1,0,0,0]];fontSize=18;" parent="GWNYYibfc6u7Uzu7YpZk-58" vertex="1">
          <mxGeometry x="36.25" y="60" width="260" height="60" as="geometry" />
        </mxCell>
        <mxCell id="GWNYYibfc6u7Uzu7YpZk-51" style="edgeStyle=orthogonalEdgeStyle;rounded=0;orthogonalLoop=1;jettySize=auto;html=1;exitX=0.25;exitY=0;exitDx=0;exitDy=0;entryX=0.25;entryY=1;entryDx=0;entryDy=0;entryPerimeter=0;strokeWidth=4;" parent="GWNYYibfc6u7Uzu7YpZk-58" source="GWNYYibfc6u7Uzu7YpZk-33" target="GWNYYibfc6u7Uzu7YpZk-39" edge="1">
          <mxGeometry relative="1" as="geometry" />
        </mxCell>
        <mxCell id="GWNYYibfc6u7Uzu7YpZk-40" value="" style="verticalLabelPosition=bottom;shadow=0;dashed=0;align=center;html=1;verticalAlign=top;shape=mxgraph.electrical.radio.aerial_-_antenna_1;" parent="GWNYYibfc6u7Uzu7YpZk-58" vertex="1">
          <mxGeometry x="241.25" y="75" width="20" height="30" as="geometry" />
        </mxCell>
        <mxCell id="GWNYYibfc6u7Uzu7YpZk-44" value="" style="rounded=0;whiteSpace=wrap;html=1;fillColor=none;dashed=1;dashPattern=12 12;strokeWidth=4;" parent="1" vertex="1">
          <mxGeometry x="471.25" y="520" width="330" height="230" as="geometry" />
        </mxCell>
        <mxCell id="GWNYYibfc6u7Uzu7YpZk-45" value="Webbrowser&lt;br style=&quot;font-size: 18px;&quot;&gt;Client Seite" style="rounded=0;whiteSpace=wrap;html=1;fillColor=#008a00;fontColor=#ffffff;strokeColor=#005700;fontSize=18;" parent="1" vertex="1">
          <mxGeometry x="507.5" y="664" width="258.75" height="60" as="geometry" />
        </mxCell>
        <mxCell id="GWNYYibfc6u7Uzu7YpZk-46" value="&lt;font style=&quot;font-size: 14px;&quot;&gt;Smartphone&lt;/font&gt;" style="text;html=1;strokeColor=none;fillColor=none;align=left;verticalAlign=middle;whiteSpace=wrap;rounded=0;fontStyle=1" parent="1" vertex="1">
          <mxGeometry x="470" y="490" width="202.5" height="30" as="geometry" />
        </mxCell>
        <mxCell id="GWNYYibfc6u7Uzu7YpZk-54" style="edgeStyle=orthogonalEdgeStyle;rounded=0;orthogonalLoop=1;jettySize=auto;html=1;exitX=0.75;exitY=1;exitDx=0;exitDy=0;exitPerimeter=0;entryX=0.75;entryY=0;entryDx=0;entryDy=0;strokeWidth=3;" parent="1" source="GWNYYibfc6u7Uzu7YpZk-47" target="GWNYYibfc6u7Uzu7YpZk-45" edge="1">
          <mxGeometry relative="1" as="geometry" />
        </mxCell>
        <mxCell id="GWNYYibfc6u7Uzu7YpZk-47" value="Netzwerkkarte/&lt;br style=&quot;font-size: 18px;&quot;&gt;Wifi Interface" style="rounded=0;whiteSpace=wrap;html=1;points=[[0,0,0,0,0],[0,0.25,0,0,0],[0,0.5,0,0,0],[0,0.75,0,0,0],[0,1,0,0,0],[0.13,0,0,0,0],[0.25,0,0,0,0],[0.25,1,0,0,0],[0.38,0,0,0,0],[0.5,0,0,0,0],[0.5,1,0,0,0],[0.62,0,0,0,0],[0.75,0,0,0,0],[0.75,1,0,0,0],[0.87,0,0,0,0],[1,0,0,0,0],[1,0.25,0,0,0],[1,0.5,0,0,0],[1,0.75,0,0,0],[1,1,0,0,0]];fontSize=18;" parent="1" vertex="1">
          <mxGeometry x="506.25" y="550" width="260" height="60" as="geometry" />
        </mxCell>
        <mxCell id="GWNYYibfc6u7Uzu7YpZk-53" style="edgeStyle=orthogonalEdgeStyle;rounded=0;orthogonalLoop=1;jettySize=auto;html=1;exitX=0.25;exitY=0;exitDx=0;exitDy=0;entryX=0.25;entryY=1;entryDx=0;entryDy=0;entryPerimeter=0;strokeWidth=3;" parent="1" source="GWNYYibfc6u7Uzu7YpZk-45" target="GWNYYibfc6u7Uzu7YpZk-47" edge="1">
          <mxGeometry relative="1" as="geometry" />
        </mxCell>
        <mxCell id="GWNYYibfc6u7Uzu7YpZk-48" value="" style="verticalLabelPosition=bottom;shadow=0;dashed=0;align=center;html=1;verticalAlign=top;shape=mxgraph.electrical.radio.aerial_-_antenna_1;" parent="1" vertex="1">
          <mxGeometry x="711.25" y="565" width="20" height="30" as="geometry" />
        </mxCell>
        <mxCell id="GWNYYibfc6u7Uzu7YpZk-12" value="" style="rounded=0;whiteSpace=wrap;html=1;fillColor=none;dashed=1;dashPattern=12 12;strokeWidth=4;perimeterSpacing=0;" parent="1" vertex="1">
          <mxGeometry x="470" y="100" width="330" height="230" as="geometry" />
        </mxCell>
        <mxCell id="GWNYYibfc6u7Uzu7YpZk-1" value="Webserver" style="rounded=0;whiteSpace=wrap;html=1;fillColor=#008a00;fontColor=#ffffff;strokeColor=#005700;fontSize=18;" parent="1" vertex="1">
          <mxGeometry x="510" y="130" width="258.75" height="60" as="geometry" />
        </mxCell>
        <mxCell id="GWNYYibfc6u7Uzu7YpZk-13" value="Raspberry Pie auf Dachträger" style="text;html=1;strokeColor=none;fillColor=none;align=left;verticalAlign=middle;whiteSpace=wrap;rounded=0;fontStyle=1;fontSize=14;" parent="1" vertex="1">
          <mxGeometry x="468.75" y="70" width="202.5" height="30" as="geometry" />
        </mxCell>
        <mxCell id="GWNYYibfc6u7Uzu7YpZk-22" style="edgeStyle=orthogonalEdgeStyle;rounded=0;orthogonalLoop=1;jettySize=auto;html=1;exitX=0.25;exitY=0;exitDx=0;exitDy=0;exitPerimeter=0;entryX=0.25;entryY=1;entryDx=0;entryDy=0;strokeWidth=4;" parent="1" source="GWNYYibfc6u7Uzu7YpZk-15" target="GWNYYibfc6u7Uzu7YpZk-1" edge="1">
          <mxGeometry relative="1" as="geometry" />
        </mxCell>
        <mxCell id="GWNYYibfc6u7Uzu7YpZk-15" value="Netzwerkkarte/&lt;br style=&quot;font-size: 18px;&quot;&gt;Wifi Interface" style="rounded=0;whiteSpace=wrap;html=1;points=[[0,0,0,0,0],[0,0.25,0,0,0],[0,0.5,0,0,0],[0,0.75,0,0,0],[0,1,0,0,0],[0.13,0,0,0,0],[0.25,0,0,0,0],[0.25,1,0,0,0],[0.38,0,0,0,0],[0.5,0,0,0,0],[0.5,1,0,0,0],[0.62,0,0,0,0],[0.75,0,0,0,0],[0.75,1,0,0,0],[0.87,0,0,0,0],[1,0,0,0,0],[1,0.25,0,0,0],[1,0.5,0,0,0],[1,0.75,0,0,0],[1,1,0,0,0]];fontSize=18;" parent="1" vertex="1">
          <mxGeometry x="510" y="244" width="260" height="60" as="geometry" />
        </mxCell>
        <mxCell id="GWNYYibfc6u7Uzu7YpZk-23" style="edgeStyle=orthogonalEdgeStyle;rounded=0;orthogonalLoop=1;jettySize=auto;html=1;exitX=0.75;exitY=1;exitDx=0;exitDy=0;entryX=0.75;entryY=0;entryDx=0;entryDy=0;entryPerimeter=0;strokeWidth=4;" parent="1" source="GWNYYibfc6u7Uzu7YpZk-1" target="GWNYYibfc6u7Uzu7YpZk-15" edge="1">
          <mxGeometry relative="1" as="geometry" />
        </mxCell>
        <mxCell id="GWNYYibfc6u7Uzu7YpZk-16" value="" style="verticalLabelPosition=bottom;shadow=0;dashed=0;align=center;html=1;verticalAlign=top;shape=mxgraph.electrical.radio.aerial_-_antenna_1;" parent="1" vertex="1">
          <mxGeometry x="710" y="259" width="20" height="30" as="geometry" />
        </mxCell>
      </root>
    </mxGraphModel>
  </diagram>
</mxfile>
